<svg width="881" height="610" viewBox="0 0 881 610" fill="none" xmlns="http://www.w3.org/2000/svg">
<g style="mix-blend-mode:overlay" opacity="0.15" clip-path="url(#clip0_55_558)">
<path d="M26.67 38.53L13.33 0L0 38.53C0 38.53 0.03 38.61 0.08 38.76C0.14 38.93 0.23 39.18 0.34 39.51C2.42 45.52 13.33 77.06 13.33 77.06L26.66 38.53H26.67Z" fill="white"/>
<path d="M53.3499 38.53L40.0099 0L26.6799 38.53C26.6799 38.53 26.7099 38.61 26.7599 38.76C26.8199 38.93 26.9099 39.18 27.0199 39.51C29.0999 45.52 40.0099 77.06 40.0099 77.06L53.3399 38.53H53.3499Z" fill="white"/>
<path d="M80.0301 38.53L66.6901 0L53.3601 38.53C53.3601 38.53 53.3901 38.61 53.4401 38.76C53.5001 38.93 53.5901 39.18 53.7001 39.51C55.7801 45.52 66.6901 77.06 66.6901 77.06L80.0201 38.53H80.0301Z" fill="white"/>
<path d="M106.71 38.53L93.37 0L80.04 38.53C80.04 38.53 80.07 38.61 80.12 38.76C80.18 38.93 80.27 39.18 80.38 39.51C82.46 45.52 93.37 77.06 93.37 77.06L106.7 38.53H106.71Z" fill="white"/>
<path d="M133.39 38.53L120.05 0L106.72 38.53C106.72 38.53 106.75 38.61 106.8 38.76C106.86 38.93 106.95 39.18 107.06 39.51C109.14 45.52 120.05 77.06 120.05 77.06L133.38 38.53H133.39Z" fill="white"/>
<path d="M160.07 38.53L146.73 0L133.4 38.53C133.4 38.53 133.43 38.61 133.48 38.76C133.54 38.93 133.63 39.18 133.74 39.51C135.82 45.52 146.73 77.06 146.73 77.06L160.06 38.53H160.07Z" fill="white"/>
<path d="M186.75 38.53L173.41 0L160.08 38.53C160.08 38.53 160.11 38.61 160.16 38.76C160.22 38.93 160.31 39.18 160.42 39.51C162.5 45.52 173.41 77.06 173.41 77.06L186.74 38.53H186.75Z" fill="white"/>
<path d="M213.43 38.53L200.09 0L186.76 38.53C186.76 38.53 186.79 38.61 186.84 38.76C186.9 38.93 186.99 39.18 187.1 39.51C189.18 45.52 200.09 77.06 200.09 77.06L213.42 38.53H213.43Z" fill="white"/>
<path d="M240.11 38.53L226.77 0L213.44 38.53C213.44 38.53 213.47 38.61 213.52 38.76C213.58 38.93 213.67 39.18 213.78 39.51C215.86 45.52 226.77 77.06 226.77 77.06L240.1 38.53H240.11Z" fill="white"/>
<path d="M266.79 38.53L253.45 0L240.12 38.53C240.12 38.53 240.15 38.61 240.2 38.76C240.26 38.93 240.35 39.18 240.46 39.51C242.54 45.52 253.45 77.06 253.45 77.06L266.78 38.53H266.79Z" fill="white"/>
<path d="M293.47 38.53L280.13 0L266.8 38.53C266.8 38.53 266.83 38.61 266.88 38.76C266.94 38.93 267.03 39.18 267.14 39.51C269.22 45.52 280.13 77.06 280.13 77.06L293.46 38.53H293.47Z" fill="white"/>
<path d="M320.14 38.53L306.81 0L293.48 38.53C293.48 38.53 293.51 38.61 293.56 38.76C293.62 38.93 293.71 39.18 293.82 39.51C295.9 45.52 306.81 77.06 306.81 77.06L320.14 38.53Z" fill="white"/>
<path d="M346.82 38.53L333.49 0L320.16 38.53C320.16 38.53 320.19 38.61 320.24 38.76C320.3 38.93 320.39 39.18 320.5 39.51C322.58 45.52 333.49 77.06 333.49 77.06L346.82 38.53Z" fill="white"/>
<path d="M373.5 38.53L360.17 0L346.84 38.53C346.84 38.53 346.87 38.61 346.92 38.76C346.98 38.93 347.07 39.18 347.18 39.51C349.26 45.52 360.17 77.06 360.17 77.06L373.5 38.53Z" fill="white"/>
<path d="M400.18 38.53L386.85 0L373.52 38.53C373.52 38.53 373.55 38.61 373.6 38.76C373.66 38.93 373.75 39.18 373.86 39.51C375.94 45.52 386.85 77.06 386.85 77.06L400.18 38.53Z" fill="white"/>
<path d="M426.86 38.53L413.53 0L400.2 38.53C400.2 38.53 400.23 38.61 400.28 38.76C400.34 38.93 400.43 39.18 400.54 39.51C402.62 45.52 413.53 77.06 413.53 77.06L426.86 38.53Z" fill="white"/>
<path d="M453.54 38.53L440.21 0L426.88 38.53C426.88 38.53 426.91 38.61 426.96 38.76C427.02 38.93 427.11 39.18 427.22 39.51C429.3 45.52 440.21 77.06 440.21 77.06L453.54 38.53Z" fill="white"/>
<path d="M480.22 38.53L466.89 0L453.56 38.53C453.56 38.53 453.59 38.61 453.64 38.76C453.7 38.93 453.79 39.18 453.9 39.51C455.98 45.52 466.89 77.06 466.89 77.06L480.22 38.53Z" fill="white"/>
<path d="M506.9 38.53L493.57 0L480.24 38.53C480.24 38.53 480.27 38.61 480.32 38.76C480.38 38.93 480.47 39.18 480.58 39.51C482.66 45.52 493.57 77.06 493.57 77.06L506.9 38.53Z" fill="white"/>
<path d="M533.58 38.53L520.25 0L506.92 38.53C506.92 38.53 506.95 38.61 507 38.76C507.06 38.93 507.15 39.18 507.26 39.51C509.34 45.52 520.25 77.06 520.25 77.06L533.58 38.53Z" fill="white"/>
<path d="M560.26 38.53L546.93 0L533.6 38.53C533.6 38.53 533.63 38.61 533.68 38.76C533.74 38.93 533.83 39.18 533.94 39.51C536.02 45.52 546.93 77.06 546.93 77.06L560.26 38.53Z" fill="white"/>
<path d="M586.94 38.53L573.61 0L560.28 38.53C560.28 38.53 560.31 38.61 560.36 38.76C560.42 38.93 560.51 39.18 560.62 39.51C562.7 45.52 573.61 77.06 573.61 77.06L586.94 38.53Z" fill="white"/>
<path d="M613.62 38.53L600.29 0L586.96 38.53C586.96 38.53 586.99 38.61 587.04 38.76C587.1 38.93 587.19 39.18 587.3 39.51C589.38 45.52 600.29 77.06 600.29 77.06L613.62 38.53Z" fill="white"/>
<path d="M640.3 38.53L626.97 0L613.64 38.53C613.64 38.53 613.67 38.61 613.72 38.76C613.78 38.93 613.87 39.18 613.98 39.51C616.06 45.52 626.97 77.06 626.97 77.06L640.3 38.53Z" fill="white"/>
<path d="M666.98 38.53L653.65 0L640.32 38.53C640.32 38.53 640.35 38.61 640.4 38.76C640.46 38.93 640.55 39.18 640.66 39.51C642.74 45.52 653.65 77.06 653.65 77.06L666.98 38.53Z" fill="white"/>
<path d="M693.66 38.53L680.33 0L667 38.53C667 38.53 667.03 38.61 667.08 38.76C667.14 38.93 667.23 39.18 667.34 39.51C669.42 45.52 680.33 77.06 680.33 77.06L693.66 38.53Z" fill="white"/>
<path d="M720.34 38.53L707.01 0L693.68 38.53C693.68 38.53 693.71 38.61 693.76 38.76C693.82 38.93 693.91 39.18 694.02 39.51C696.1 45.52 707.01 77.06 707.01 77.06L720.34 38.53Z" fill="white"/>
<path d="M747.02 38.53L733.69 0L720.36 38.53C720.36 38.53 720.39 38.61 720.44 38.76C720.5 38.93 720.59 39.18 720.7 39.51C722.78 45.52 733.69 77.06 733.69 77.06L747.02 38.53Z" fill="white"/>
<path d="M773.7 38.53L760.37 0L747.04 38.53C747.04 38.53 747.07 38.61 747.12 38.76C747.18 38.93 747.27 39.18 747.38 39.51C749.46 45.52 760.37 77.06 760.37 77.06L773.7 38.53Z" fill="white"/>
<path d="M800.38 38.53L787.05 0L773.72 38.53C773.72 38.53 773.75 38.61 773.8 38.76C773.86 38.93 773.95 39.18 774.06 39.51C776.14 45.52 787.05 77.06 787.05 77.06L800.38 38.53Z" fill="white"/>
<path d="M827.06 38.53L813.73 0L800.4 38.53C800.4 38.53 800.43 38.61 800.48 38.76C800.54 38.93 800.63 39.18 800.74 39.51C802.82 45.52 813.73 77.06 813.73 77.06L827.06 38.53Z" fill="white"/>
<path d="M853.74 38.53L840.41 0L827.08 38.53C827.08 38.53 827.11 38.61 827.16 38.76C827.22 38.93 827.31 39.18 827.42 39.51C829.5 45.52 840.41 77.06 840.41 77.06L853.74 38.53Z" fill="white"/>
<path d="M880.42 38.53L867.09 0L853.76 38.53C853.76 38.53 853.79 38.61 853.84 38.76C853.9 38.93 853.99 39.18 854.1 39.51C856.18 45.52 867.09 77.06 867.09 77.06L880.42 38.53Z" fill="white"/>
<path d="M26.67 114.64L13.34 76.11L0 114.64C0 114.64 0.03 114.72 0.08 114.87C0.14 115.04 0.23 115.29 0.34 115.62C2.42 121.63 13.33 153.17 13.33 153.17L26.66 114.64H26.67Z" fill="white"/>
<path d="M53.3499 114.64L40.0199 76.11L26.6899 114.64C26.6899 114.64 26.7199 114.72 26.7699 114.87C26.8299 115.04 26.9199 115.29 27.0299 115.62C29.1099 121.63 40.0199 153.17 40.0199 153.17L53.3499 114.64Z" fill="white"/>
<path d="M80.0301 114.64L66.7001 76.11L53.3701 114.64C53.3701 114.64 53.4001 114.72 53.4501 114.87C53.5101 115.04 53.6001 115.29 53.7101 115.62C55.7901 121.63 66.7001 153.17 66.7001 153.17L80.0301 114.64Z" fill="white"/>
<path d="M106.71 114.64L93.38 76.11L80.05 114.64C80.05 114.64 80.08 114.72 80.13 114.87C80.19 115.04 80.28 115.29 80.39 115.62C82.47 121.63 93.38 153.17 93.38 153.17L106.71 114.64Z" fill="white"/>
<path d="M133.39 114.64L120.06 76.11L106.73 114.64C106.73 114.64 106.76 114.72 106.81 114.87C106.87 115.04 106.96 115.29 107.07 115.62C109.15 121.63 120.06 153.17 120.06 153.17L133.39 114.64Z" fill="white"/>
<path d="M160.07 114.64L146.74 76.11L133.41 114.64C133.41 114.64 133.44 114.72 133.49 114.87C133.55 115.04 133.64 115.29 133.75 115.62C135.83 121.63 146.74 153.17 146.74 153.17L160.07 114.64Z" fill="white"/>
<path d="M186.75 114.64L173.42 76.11L160.09 114.64C160.09 114.64 160.12 114.72 160.17 114.87C160.23 115.04 160.32 115.29 160.43 115.62C162.51 121.63 173.42 153.17 173.42 153.17L186.75 114.64Z" fill="white"/>
<path d="M213.43 114.64L200.1 76.11L186.77 114.64C186.77 114.64 186.8 114.72 186.85 114.87C186.91 115.04 187 115.29 187.11 115.62C189.19 121.63 200.1 153.17 200.1 153.17L213.43 114.64Z" fill="white"/>
<path d="M240.11 114.64L226.78 76.11L213.45 114.64C213.45 114.64 213.48 114.72 213.53 114.87C213.59 115.04 213.68 115.29 213.79 115.62C215.87 121.63 226.78 153.17 226.78 153.17L240.11 114.64Z" fill="white"/>
<path d="M266.79 114.64L253.46 76.11L240.13 114.64C240.13 114.64 240.16 114.72 240.21 114.87C240.27 115.04 240.36 115.29 240.47 115.62C242.55 121.63 253.46 153.17 253.46 153.17L266.79 114.64Z" fill="white"/>
<path d="M293.47 114.64L280.14 76.11L266.81 114.64C266.81 114.64 266.84 114.72 266.89 114.87C266.95 115.04 267.04 115.29 267.15 115.62C269.23 121.63 280.14 153.17 280.14 153.17L293.47 114.64Z" fill="white"/>
<path d="M320.14 114.64L306.81 76.11L293.48 114.64C293.48 114.64 293.51 114.72 293.56 114.87C293.62 115.04 293.71 115.29 293.82 115.62C295.9 121.63 306.81 153.17 306.81 153.17L320.14 114.64Z" fill="white"/>
<path d="M346.82 114.64L333.49 76.11L320.16 114.64C320.16 114.64 320.19 114.72 320.24 114.87C320.3 115.04 320.39 115.29 320.5 115.62C322.58 121.63 333.49 153.17 333.49 153.17L346.82 114.64Z" fill="white"/>
<path d="M373.5 114.64L360.17 76.11L346.84 114.64C346.84 114.64 346.87 114.72 346.92 114.87C346.98 115.04 347.07 115.29 347.18 115.62C349.26 121.63 360.17 153.17 360.17 153.17L373.5 114.64Z" fill="white"/>
<path d="M400.18 114.64L386.85 76.11L373.52 114.64C373.52 114.64 373.55 114.72 373.6 114.87C373.66 115.04 373.75 115.29 373.86 115.62C375.94 121.63 386.85 153.17 386.85 153.17L400.18 114.64Z" fill="white"/>
<path d="M426.86 114.64L413.53 76.11L400.2 114.64C400.2 114.64 400.23 114.72 400.28 114.87C400.34 115.04 400.43 115.29 400.54 115.62C402.62 121.63 413.53 153.17 413.53 153.17L426.86 114.64Z" fill="white"/>
<path d="M453.54 114.64L440.21 76.11L426.88 114.64C426.88 114.64 426.91 114.72 426.96 114.87C427.02 115.04 427.11 115.29 427.22 115.62C429.3 121.63 440.21 153.17 440.21 153.17L453.54 114.64Z" fill="white"/>
<path d="M480.22 114.64L466.89 76.11L453.56 114.64C453.56 114.64 453.59 114.72 453.64 114.87C453.7 115.04 453.79 115.29 453.9 115.62C455.98 121.63 466.89 153.17 466.89 153.17L480.22 114.64Z" fill="white"/>
<path d="M506.9 114.64L493.57 76.11L480.24 114.64C480.24 114.64 480.27 114.72 480.32 114.87C480.38 115.04 480.47 115.29 480.58 115.62C482.66 121.63 493.57 153.17 493.57 153.17L506.9 114.64Z" fill="white"/>
<path d="M533.58 114.64L520.25 76.11L506.92 114.64C506.92 114.64 506.95 114.72 507 114.87C507.06 115.04 507.15 115.29 507.26 115.62C509.34 121.63 520.25 153.17 520.25 153.17L533.58 114.64Z" fill="white"/>
<path d="M560.26 114.64L546.93 76.11L533.6 114.64C533.6 114.64 533.63 114.72 533.68 114.87C533.74 115.04 533.83 115.29 533.94 115.62C536.02 121.63 546.93 153.17 546.93 153.17L560.26 114.64Z" fill="white"/>
<path d="M586.94 114.64L573.61 76.11L560.28 114.64C560.28 114.64 560.31 114.72 560.36 114.87C560.42 115.04 560.51 115.29 560.62 115.62C562.7 121.63 573.61 153.17 573.61 153.17L586.94 114.64Z" fill="white"/>
<path d="M613.62 114.64L600.29 76.11L586.96 114.64C586.96 114.64 586.99 114.72 587.04 114.87C587.1 115.04 587.19 115.29 587.3 115.62C589.38 121.63 600.29 153.17 600.29 153.17L613.62 114.64Z" fill="white"/>
<path d="M640.3 114.64L626.97 76.11L613.64 114.64C613.64 114.64 613.67 114.72 613.72 114.87C613.78 115.04 613.87 115.29 613.98 115.62C616.06 121.63 626.97 153.17 626.97 153.17L640.3 114.64Z" fill="white"/>
<path d="M666.98 114.64L653.65 76.11L640.32 114.64C640.32 114.64 640.35 114.72 640.4 114.87C640.46 115.04 640.55 115.29 640.66 115.62C642.74 121.63 653.65 153.17 653.65 153.17L666.98 114.64Z" fill="white"/>
<path d="M693.66 114.64L680.33 76.11L667 114.64C667 114.64 667.03 114.72 667.08 114.87C667.14 115.04 667.23 115.29 667.34 115.62C669.42 121.63 680.33 153.17 680.33 153.17L693.66 114.64Z" fill="white"/>
<path d="M720.34 114.64L707.01 76.11L693.68 114.64C693.68 114.64 693.71 114.72 693.76 114.87C693.82 115.04 693.91 115.29 694.02 115.62C696.1 121.63 707.01 153.17 707.01 153.17L720.34 114.64Z" fill="white"/>
<path d="M747.02 114.64L733.69 76.11L720.36 114.64C720.36 114.64 720.39 114.72 720.44 114.87C720.5 115.04 720.59 115.29 720.7 115.62C722.78 121.63 733.69 153.17 733.69 153.17L747.02 114.64Z" fill="white"/>
<path d="M773.7 114.64L760.37 76.11L747.04 114.64C747.04 114.64 747.07 114.72 747.12 114.87C747.18 115.04 747.27 115.29 747.38 115.62C749.46 121.63 760.37 153.17 760.37 153.17L773.7 114.64Z" fill="white"/>
<path d="M800.38 114.64L787.05 76.11L773.72 114.64C773.72 114.64 773.75 114.72 773.8 114.87C773.86 115.04 773.95 115.29 774.06 115.62C776.14 121.63 787.05 153.17 787.05 153.17L800.38 114.64Z" fill="white"/>
<path d="M827.06 114.64L813.73 76.11L800.4 114.64C800.4 114.64 800.43 114.72 800.48 114.87C800.54 115.04 800.63 115.29 800.74 115.62C802.82 121.63 813.73 153.17 813.73 153.17L827.06 114.64Z" fill="white"/>
<path d="M853.74 114.64L840.41 76.11L827.08 114.64C827.08 114.64 827.11 114.72 827.16 114.87C827.22 115.04 827.31 115.29 827.42 115.62C829.5 121.63 840.41 153.17 840.41 153.17L853.74 114.64Z" fill="white"/>
<path d="M880.42 114.64L867.09 76.11L853.76 114.64C853.76 114.64 853.79 114.72 853.84 114.87C853.9 115.04 853.99 115.29 854.1 115.62C856.18 121.63 867.09 153.17 867.09 153.17L880.42 114.64Z" fill="white"/>
<path d="M26.67 190.75L13.34 152.22L0 190.75C0 190.75 0.03 190.83 0.08 190.98C0.14 191.15 0.23 191.4 0.34 191.73C2.42 197.74 13.33 229.28 13.33 229.28L26.66 190.75H26.67Z" fill="white"/>
<path d="M53.3499 190.75L40.0199 152.22L26.6899 190.75C26.6899 190.75 26.7199 190.83 26.7699 190.98C26.8299 191.15 26.9199 191.4 27.0299 191.73C29.1099 197.74 40.0199 229.28 40.0199 229.28L53.3499 190.75Z" fill="white"/>
<path d="M80.0301 190.75L66.7001 152.22L53.3701 190.75C53.3701 190.75 53.4001 190.83 53.4501 190.98C53.5101 191.15 53.6001 191.4 53.7101 191.73C55.7901 197.74 66.7001 229.28 66.7001 229.28L80.0301 190.75Z" fill="white"/>
<path d="M106.71 190.75L93.38 152.22L80.05 190.75C80.05 190.75 80.08 190.83 80.13 190.98C80.19 191.15 80.28 191.4 80.39 191.73C82.47 197.74 93.38 229.28 93.38 229.28L106.71 190.75Z" fill="white"/>
<path d="M133.39 190.75L120.06 152.22L106.73 190.75C106.73 190.75 106.76 190.83 106.81 190.98C106.87 191.15 106.96 191.4 107.07 191.73C109.15 197.74 120.06 229.28 120.06 229.28L133.39 190.75Z" fill="white"/>
<path d="M160.07 190.75L146.74 152.22L133.41 190.75C133.41 190.75 133.44 190.83 133.49 190.98C133.55 191.15 133.64 191.4 133.75 191.73C135.83 197.74 146.74 229.28 146.74 229.28L160.07 190.75Z" fill="white"/>
<path d="M186.75 190.75L173.42 152.22L160.09 190.75C160.09 190.75 160.12 190.83 160.17 190.98C160.23 191.15 160.32 191.4 160.43 191.73C162.51 197.74 173.42 229.28 173.42 229.28L186.75 190.75Z" fill="white"/>
<path d="M213.43 190.75L200.1 152.22L186.77 190.75C186.77 190.75 186.8 190.83 186.85 190.98C186.91 191.15 187 191.4 187.11 191.73C189.19 197.74 200.1 229.28 200.1 229.28L213.43 190.75Z" fill="white"/>
<path d="M240.11 190.75L226.78 152.22L213.45 190.75C213.45 190.75 213.48 190.83 213.53 190.98C213.59 191.15 213.68 191.4 213.79 191.73C215.87 197.74 226.78 229.28 226.78 229.28L240.11 190.75Z" fill="white"/>
<path d="M266.79 190.75L253.46 152.22L240.13 190.75C240.13 190.75 240.16 190.83 240.21 190.98C240.27 191.15 240.36 191.4 240.47 191.73C242.55 197.74 253.46 229.28 253.46 229.28L266.79 190.75Z" fill="white"/>
<path d="M293.47 190.75L280.14 152.22L266.81 190.75C266.81 190.75 266.84 190.83 266.89 190.98C266.95 191.15 267.04 191.4 267.15 191.73C269.23 197.74 280.14 229.28 280.14 229.28L293.47 190.75Z" fill="white"/>
<path d="M320.14 190.75L306.81 152.22L293.48 190.75C293.48 190.75 293.51 190.83 293.56 190.98C293.62 191.15 293.71 191.4 293.82 191.73C295.9 197.74 306.81 229.28 306.81 229.28L320.14 190.75Z" fill="white"/>
<path d="M346.82 190.75L333.49 152.22L320.16 190.75C320.16 190.75 320.19 190.83 320.24 190.98C320.3 191.15 320.39 191.4 320.5 191.73C322.58 197.74 333.49 229.28 333.49 229.28L346.82 190.75Z" fill="white"/>
<path d="M373.5 190.75L360.17 152.22L346.84 190.75C346.84 190.75 346.87 190.83 346.92 190.98C346.98 191.15 347.07 191.4 347.18 191.73C349.26 197.74 360.17 229.28 360.17 229.28L373.5 190.75Z" fill="white"/>
<path d="M400.18 190.75L386.85 152.22L373.52 190.75C373.52 190.75 373.55 190.83 373.6 190.98C373.66 191.15 373.75 191.4 373.86 191.73C375.94 197.74 386.85 229.28 386.85 229.28L400.18 190.75Z" fill="white"/>
<path d="M426.86 190.75L413.53 152.22L400.2 190.75C400.2 190.75 400.23 190.83 400.28 190.98C400.34 191.15 400.43 191.4 400.54 191.73C402.62 197.74 413.53 229.28 413.53 229.28L426.86 190.75Z" fill="white"/>
<path d="M453.54 190.75L440.21 152.22L426.88 190.75C426.88 190.75 426.91 190.83 426.96 190.98C427.02 191.15 427.11 191.4 427.22 191.73C429.3 197.74 440.21 229.28 440.21 229.28L453.54 190.75Z" fill="white"/>
<path d="M480.22 190.75L466.89 152.22L453.56 190.75C453.56 190.75 453.59 190.83 453.64 190.98C453.7 191.15 453.79 191.4 453.9 191.73C455.98 197.74 466.89 229.28 466.89 229.28L480.22 190.75Z" fill="white"/>
<path d="M506.9 190.75L493.57 152.22L480.24 190.75C480.24 190.75 480.27 190.83 480.32 190.98C480.38 191.15 480.47 191.4 480.58 191.73C482.66 197.74 493.57 229.28 493.57 229.28L506.9 190.75Z" fill="white"/>
<path d="M533.58 190.75L520.25 152.22L506.92 190.75C506.92 190.75 506.95 190.83 507 190.98C507.06 191.15 507.15 191.4 507.26 191.73C509.34 197.74 520.25 229.28 520.25 229.28L533.58 190.75Z" fill="white"/>
<path d="M560.26 190.75L546.93 152.22L533.6 190.75C533.6 190.75 533.63 190.83 533.68 190.98C533.74 191.15 533.83 191.4 533.94 191.73C536.02 197.74 546.93 229.28 546.93 229.28L560.26 190.75Z" fill="white"/>
<path d="M586.94 190.75L573.61 152.22L560.28 190.75C560.28 190.75 560.31 190.83 560.36 190.98C560.42 191.15 560.51 191.4 560.62 191.73C562.7 197.74 573.61 229.28 573.61 229.28L586.94 190.75Z" fill="white"/>
<path d="M613.62 190.75L600.29 152.22L586.96 190.75C586.96 190.75 586.99 190.83 587.04 190.98C587.1 191.15 587.19 191.4 587.3 191.73C589.38 197.74 600.29 229.28 600.29 229.28L613.62 190.75Z" fill="white"/>
<path d="M640.3 190.75L626.97 152.22L613.64 190.75C613.64 190.75 613.67 190.83 613.72 190.98C613.78 191.15 613.87 191.4 613.98 191.73C616.06 197.74 626.97 229.28 626.97 229.28L640.3 190.75Z" fill="white"/>
<path d="M666.98 190.75L653.65 152.22L640.32 190.75C640.32 190.75 640.35 190.83 640.4 190.98C640.46 191.15 640.55 191.4 640.66 191.73C642.74 197.74 653.65 229.28 653.65 229.28L666.98 190.75Z" fill="white"/>
<path d="M693.66 190.75L680.33 152.22L667 190.75C667 190.75 667.03 190.83 667.08 190.98C667.14 191.15 667.23 191.4 667.34 191.73C669.42 197.74 680.33 229.28 680.33 229.28L693.66 190.75Z" fill="white"/>
<path d="M720.34 190.75L707.01 152.22L693.68 190.75C693.68 190.75 693.71 190.83 693.76 190.98C693.82 191.15 693.91 191.4 694.02 191.73C696.1 197.74 707.01 229.28 707.01 229.28L720.34 190.75Z" fill="white"/>
<path d="M747.02 190.75L733.69 152.22L720.36 190.75C720.36 190.75 720.39 190.83 720.44 190.98C720.5 191.15 720.59 191.4 720.7 191.73C722.78 197.74 733.69 229.28 733.69 229.28L747.02 190.75Z" fill="white"/>
<path d="M773.7 190.75L760.37 152.22L747.04 190.75C747.04 190.75 747.07 190.83 747.12 190.98C747.18 191.15 747.27 191.4 747.38 191.73C749.46 197.74 760.37 229.28 760.37 229.28L773.7 190.75Z" fill="white"/>
<path d="M800.38 190.75L787.05 152.22L773.72 190.75C773.72 190.75 773.75 190.83 773.8 190.98C773.86 191.15 773.95 191.4 774.06 191.73C776.14 197.74 787.05 229.28 787.05 229.28L800.38 190.75Z" fill="white"/>
<path d="M827.06 190.75L813.73 152.22L800.4 190.75C800.4 190.75 800.43 190.83 800.48 190.98C800.54 191.15 800.63 191.4 800.74 191.73C802.82 197.74 813.73 229.28 813.73 229.28L827.06 190.75Z" fill="white"/>
<path d="M853.74 190.75L840.41 152.22L827.08 190.75C827.08 190.75 827.11 190.83 827.16 190.98C827.22 191.15 827.31 191.4 827.42 191.73C829.5 197.74 840.41 229.28 840.41 229.28L853.74 190.75Z" fill="white"/>
<path d="M880.42 190.75L867.09 152.22L853.76 190.75C853.76 190.75 853.79 190.83 853.84 190.98C853.9 191.15 853.99 191.4 854.1 191.73C856.18 197.74 867.09 229.28 867.09 229.28L880.42 190.75Z" fill="white"/>
<path d="M26.67 266.85L13.34 228.32L0 266.85C0 266.85 0.03 266.93 0.08 267.08C0.14 267.25 0.23 267.5 0.34 267.83C2.42 273.84 13.33 305.38 13.33 305.38L26.66 266.85H26.67Z" fill="white"/>
<path d="M53.3499 266.85L40.0199 228.32L26.6899 266.85C26.6899 266.85 26.7199 266.93 26.7699 267.08C26.8299 267.25 26.9199 267.5 27.0299 267.83C29.1099 273.84 40.0199 305.38 40.0199 305.38L53.3499 266.85Z" fill="white"/>
<path d="M80.0301 266.85L66.7001 228.32L53.3701 266.85C53.3701 266.85 53.4001 266.93 53.4501 267.08C53.5101 267.25 53.6001 267.5 53.7101 267.83C55.7901 273.84 66.7001 305.38 66.7001 305.38L80.0301 266.85Z" fill="white"/>
<path d="M106.71 266.85L93.38 228.32L80.05 266.85C80.05 266.85 80.08 266.93 80.13 267.08C80.19 267.25 80.28 267.5 80.39 267.83C82.47 273.84 93.38 305.38 93.38 305.38L106.71 266.85Z" fill="white"/>
<path d="M133.39 266.85L120.06 228.32L106.73 266.85C106.73 266.85 106.76 266.93 106.81 267.08C106.87 267.25 106.96 267.5 107.07 267.83C109.15 273.84 120.06 305.38 120.06 305.38L133.39 266.85Z" fill="white"/>
<path d="M160.07 266.85L146.74 228.32L133.41 266.85C133.41 266.85 133.44 266.93 133.49 267.08C133.55 267.25 133.64 267.5 133.75 267.83C135.83 273.84 146.74 305.38 146.74 305.38L160.07 266.85Z" fill="white"/>
<path d="M186.75 266.85L173.42 228.32L160.09 266.85C160.09 266.85 160.12 266.93 160.17 267.08C160.23 267.25 160.32 267.5 160.43 267.83C162.51 273.84 173.42 305.38 173.42 305.38L186.75 266.85Z" fill="white"/>
<path d="M213.43 266.85L200.1 228.32L186.77 266.85C186.77 266.85 186.8 266.93 186.85 267.08C186.91 267.25 187 267.5 187.11 267.83C189.19 273.84 200.1 305.38 200.1 305.38L213.43 266.85Z" fill="white"/>
<path d="M240.11 266.85L226.78 228.32L213.45 266.85C213.45 266.85 213.48 266.93 213.53 267.08C213.59 267.25 213.68 267.5 213.79 267.83C215.87 273.84 226.78 305.38 226.78 305.38L240.11 266.85Z" fill="white"/>
<path d="M266.79 266.85L253.46 228.32L240.13 266.85C240.13 266.85 240.16 266.93 240.21 267.08C240.27 267.25 240.36 267.5 240.47 267.83C242.55 273.84 253.46 305.38 253.46 305.38L266.79 266.85Z" fill="white"/>
<path d="M293.47 266.85L280.14 228.32L266.81 266.85C266.81 266.85 266.84 266.93 266.89 267.08C266.95 267.25 267.04 267.5 267.15 267.83C269.23 273.84 280.14 305.38 280.14 305.38L293.47 266.85Z" fill="white"/>
<path d="M320.14 266.85L306.81 228.32L293.48 266.85C293.48 266.85 293.51 266.93 293.56 267.08C293.62 267.25 293.71 267.5 293.82 267.83C295.9 273.84 306.81 305.38 306.81 305.38L320.14 266.85Z" fill="white"/>
<path d="M346.82 266.85L333.49 228.32L320.16 266.85C320.16 266.85 320.19 266.93 320.24 267.08C320.3 267.25 320.39 267.5 320.5 267.83C322.58 273.84 333.49 305.38 333.49 305.38L346.82 266.85Z" fill="white"/>
<path d="M373.5 266.85L360.17 228.32L346.84 266.85C346.84 266.85 346.87 266.93 346.92 267.08C346.98 267.25 347.07 267.5 347.18 267.83C349.26 273.84 360.17 305.38 360.17 305.38L373.5 266.85Z" fill="white"/>
<path d="M400.18 266.85L386.85 228.32L373.52 266.85C373.52 266.85 373.55 266.93 373.6 267.08C373.66 267.25 373.75 267.5 373.86 267.83C375.94 273.84 386.85 305.38 386.85 305.38L400.18 266.85Z" fill="white"/>
<path d="M426.86 266.85L413.53 228.32L400.2 266.85C400.2 266.85 400.23 266.93 400.28 267.08C400.34 267.25 400.43 267.5 400.54 267.83C402.62 273.84 413.53 305.38 413.53 305.38L426.86 266.85Z" fill="white"/>
<path d="M453.54 266.85L440.21 228.32L426.88 266.85C426.88 266.85 426.91 266.93 426.96 267.08C427.02 267.25 427.11 267.5 427.22 267.83C429.3 273.84 440.21 305.38 440.21 305.38L453.54 266.85Z" fill="white"/>
<path d="M480.22 266.85L466.89 228.32L453.56 266.85C453.56 266.85 453.59 266.93 453.64 267.08C453.7 267.25 453.79 267.5 453.9 267.83C455.98 273.84 466.89 305.38 466.89 305.38L480.22 266.85Z" fill="white"/>
<path d="M506.9 266.85L493.57 228.32L480.24 266.85C480.24 266.85 480.27 266.93 480.32 267.08C480.38 267.25 480.47 267.5 480.58 267.83C482.66 273.84 493.57 305.38 493.57 305.38L506.9 266.85Z" fill="white"/>
<path d="M533.58 266.85L520.25 228.32L506.92 266.85C506.92 266.85 506.95 266.93 507 267.08C507.06 267.25 507.15 267.5 507.26 267.83C509.34 273.84 520.25 305.38 520.25 305.38L533.58 266.85Z" fill="white"/>
<path d="M560.26 266.85L546.93 228.32L533.6 266.85C533.6 266.85 533.63 266.93 533.68 267.08C533.74 267.25 533.83 267.5 533.94 267.83C536.02 273.84 546.93 305.38 546.93 305.38L560.26 266.85Z" fill="white"/>
<path d="M586.94 266.85L573.61 228.32L560.28 266.85C560.28 266.85 560.31 266.93 560.36 267.08C560.42 267.25 560.51 267.5 560.62 267.83C562.7 273.84 573.61 305.38 573.61 305.38L586.94 266.85Z" fill="white"/>
<path d="M613.62 266.85L600.29 228.32L586.96 266.85C586.96 266.85 586.99 266.93 587.04 267.08C587.1 267.25 587.19 267.5 587.3 267.83C589.38 273.84 600.29 305.38 600.29 305.38L613.62 266.85Z" fill="white"/>
<path d="M640.3 266.85L626.97 228.32L613.64 266.85C613.64 266.85 613.67 266.93 613.72 267.08C613.78 267.25 613.87 267.5 613.98 267.83C616.06 273.84 626.97 305.38 626.97 305.38L640.3 266.85Z" fill="white"/>
<path d="M666.98 266.85L653.65 228.32L640.32 266.85C640.32 266.85 640.35 266.93 640.4 267.08C640.46 267.25 640.55 267.5 640.66 267.83C642.74 273.84 653.65 305.38 653.65 305.38L666.98 266.85Z" fill="white"/>
<path d="M693.66 266.85L680.33 228.32L667 266.85C667 266.85 667.03 266.93 667.08 267.08C667.14 267.25 667.23 267.5 667.34 267.83C669.42 273.84 680.33 305.38 680.33 305.38L693.66 266.85Z" fill="white"/>
<path d="M720.34 266.85L707.01 228.32L693.68 266.85C693.68 266.85 693.71 266.93 693.76 267.08C693.82 267.25 693.91 267.5 694.02 267.83C696.1 273.84 707.01 305.38 707.01 305.38L720.34 266.85Z" fill="white"/>
<path d="M747.02 266.85L733.69 228.32L720.36 266.85C720.36 266.85 720.39 266.93 720.44 267.08C720.5 267.25 720.59 267.5 720.7 267.83C722.78 273.84 733.69 305.38 733.69 305.38L747.02 266.85Z" fill="white"/>
<path d="M773.7 266.85L760.37 228.32L747.04 266.85C747.04 266.85 747.07 266.93 747.12 267.08C747.18 267.25 747.27 267.5 747.38 267.83C749.46 273.84 760.37 305.38 760.37 305.38L773.7 266.85Z" fill="white"/>
<path d="M800.38 266.85L787.05 228.32L773.72 266.85C773.72 266.85 773.75 266.93 773.8 267.08C773.86 267.25 773.95 267.5 774.06 267.83C776.14 273.84 787.05 305.38 787.05 305.38L800.38 266.85Z" fill="white"/>
<path d="M827.06 266.85L813.73 228.32L800.4 266.85C800.4 266.85 800.43 266.93 800.48 267.08C800.54 267.25 800.63 267.5 800.74 267.83C802.82 273.84 813.73 305.38 813.73 305.38L827.06 266.85Z" fill="white"/>
<path d="M853.74 266.85L840.41 228.32L827.08 266.85C827.08 266.85 827.11 266.93 827.16 267.08C827.22 267.25 827.31 267.5 827.42 267.83C829.5 273.84 840.41 305.38 840.41 305.38L853.74 266.85Z" fill="white"/>
<path d="M880.42 266.85L867.09 228.32L853.76 266.85C853.76 266.85 853.79 266.93 853.84 267.08C853.9 267.25 853.99 267.5 854.1 267.83C856.18 273.84 867.09 305.38 867.09 305.38L880.42 266.85Z" fill="white"/>
<path d="M26.67 342.96L13.34 304.43L0 342.96C0 342.96 0.03 343.04 0.08 343.19C0.14 343.36 0.23 343.61 0.34 343.94C2.42 349.95 13.33 381.49 13.33 381.49L26.66 342.96H26.67Z" fill="white"/>
<path d="M53.3499 342.96L40.0199 304.43L26.6899 342.96C26.6899 342.96 26.7199 343.04 26.7699 343.19C26.8299 343.36 26.9199 343.61 27.0299 343.94C29.1099 349.95 40.0199 381.49 40.0199 381.49L53.3499 342.96Z" fill="white"/>
<path d="M80.0301 342.96L66.7001 304.43L53.3701 342.96C53.3701 342.96 53.4001 343.04 53.4501 343.19C53.5101 343.36 53.6001 343.61 53.7101 343.94C55.7901 349.95 66.7001 381.49 66.7001 381.49L80.0301 342.96Z" fill="white"/>
<path d="M106.71 342.96L93.38 304.43L80.05 342.96C80.05 342.96 80.08 343.04 80.13 343.19C80.19 343.36 80.28 343.61 80.39 343.94C82.47 349.95 93.38 381.49 93.38 381.49L106.71 342.96Z" fill="white"/>
<path d="M133.39 342.96L120.06 304.43L106.73 342.96C106.73 342.96 106.76 343.04 106.81 343.19C106.87 343.36 106.96 343.61 107.07 343.94C109.15 349.95 120.06 381.49 120.06 381.49L133.39 342.96Z" fill="white"/>
<path d="M160.07 342.96L146.74 304.43L133.41 342.96C133.41 342.96 133.44 343.04 133.49 343.19C133.55 343.36 133.64 343.61 133.75 343.94C135.83 349.95 146.74 381.49 146.74 381.49L160.07 342.96Z" fill="white"/>
<path d="M186.75 342.96L173.42 304.43L160.09 342.96C160.09 342.96 160.12 343.04 160.17 343.19C160.23 343.36 160.32 343.61 160.43 343.94C162.51 349.95 173.42 381.49 173.42 381.49L186.75 342.96Z" fill="white"/>
<path d="M213.43 342.96L200.1 304.43L186.77 342.96C186.77 342.96 186.8 343.04 186.85 343.19C186.91 343.36 187 343.61 187.11 343.94C189.19 349.95 200.1 381.49 200.1 381.49L213.43 342.96Z" fill="white"/>
<path d="M240.11 342.96L226.78 304.43L213.45 342.96C213.45 342.96 213.48 343.04 213.53 343.19C213.59 343.36 213.68 343.61 213.79 343.94C215.87 349.95 226.78 381.49 226.78 381.49L240.11 342.96Z" fill="white"/>
<path d="M266.79 342.96L253.46 304.43L240.13 342.96C240.13 342.96 240.16 343.04 240.21 343.19C240.27 343.36 240.36 343.61 240.47 343.94C242.55 349.95 253.46 381.49 253.46 381.49L266.79 342.96Z" fill="white"/>
<path d="M293.47 342.96L280.14 304.43L266.81 342.96C266.81 342.96 266.84 343.04 266.89 343.19C266.95 343.36 267.04 343.61 267.15 343.94C269.23 349.95 280.14 381.49 280.14 381.49L293.47 342.96Z" fill="white"/>
<path d="M320.14 342.96L306.81 304.43L293.48 342.96C293.48 342.96 293.51 343.04 293.56 343.19C293.62 343.36 293.71 343.61 293.82 343.94C295.9 349.95 306.81 381.49 306.81 381.49L320.14 342.96Z" fill="white"/>
<path d="M346.82 342.96L333.49 304.43L320.16 342.96C320.16 342.96 320.19 343.04 320.24 343.19C320.3 343.36 320.39 343.61 320.5 343.94C322.58 349.95 333.49 381.49 333.49 381.49L346.82 342.96Z" fill="white"/>
<path d="M373.5 342.96L360.17 304.43L346.84 342.96C346.84 342.96 346.87 343.04 346.92 343.19C346.98 343.36 347.07 343.61 347.18 343.94C349.26 349.95 360.17 381.49 360.17 381.49L373.5 342.96Z" fill="white"/>
<path d="M400.18 342.96L386.85 304.43L373.52 342.96C373.52 342.96 373.55 343.04 373.6 343.19C373.66 343.36 373.75 343.61 373.86 343.94C375.94 349.95 386.85 381.49 386.85 381.49L400.18 342.96Z" fill="white"/>
<path d="M426.86 342.96L413.53 304.43L400.2 342.96C400.2 342.96 400.23 343.04 400.28 343.19C400.34 343.36 400.43 343.61 400.54 343.94C402.62 349.95 413.53 381.49 413.53 381.49L426.86 342.96Z" fill="white"/>
<path d="M453.54 342.96L440.21 304.43L426.88 342.96C426.88 342.96 426.91 343.04 426.96 343.19C427.02 343.36 427.11 343.61 427.22 343.94C429.3 349.95 440.21 381.49 440.21 381.49L453.54 342.96Z" fill="white"/>
<path d="M480.22 342.96L466.89 304.43L453.56 342.96C453.56 342.96 453.59 343.04 453.64 343.19C453.7 343.36 453.79 343.61 453.9 343.94C455.98 349.95 466.89 381.49 466.89 381.49L480.22 342.96Z" fill="white"/>
<path d="M506.9 342.96L493.57 304.43L480.24 342.96C480.24 342.96 480.27 343.04 480.32 343.19C480.38 343.36 480.47 343.61 480.58 343.94C482.66 349.95 493.57 381.49 493.57 381.49L506.9 342.96Z" fill="white"/>
<path d="M533.58 342.96L520.25 304.43L506.92 342.96C506.92 342.96 506.95 343.04 507 343.19C507.06 343.36 507.15 343.61 507.26 343.94C509.34 349.95 520.25 381.49 520.25 381.49L533.58 342.96Z" fill="white"/>
<path d="M560.26 342.96L546.93 304.43L533.6 342.96C533.6 342.96 533.63 343.04 533.68 343.19C533.74 343.36 533.83 343.61 533.94 343.94C536.02 349.95 546.93 381.49 546.93 381.49L560.26 342.96Z" fill="white"/>
<path d="M586.94 342.96L573.61 304.43L560.28 342.96C560.28 342.96 560.31 343.04 560.36 343.19C560.42 343.36 560.51 343.61 560.62 343.94C562.7 349.95 573.61 381.49 573.61 381.49L586.94 342.96Z" fill="white"/>
<path d="M613.62 342.96L600.29 304.43L586.96 342.96C586.96 342.96 586.99 343.04 587.04 343.19C587.1 343.36 587.19 343.61 587.3 343.94C589.38 349.95 600.29 381.49 600.29 381.49L613.62 342.96Z" fill="white"/>
<path d="M640.3 342.96L626.97 304.43L613.64 342.96C613.64 342.96 613.67 343.04 613.72 343.19C613.78 343.36 613.87 343.61 613.98 343.94C616.06 349.95 626.97 381.49 626.97 381.49L640.3 342.96Z" fill="white"/>
<path d="M666.98 342.96L653.65 304.43L640.32 342.96C640.32 342.96 640.35 343.04 640.4 343.19C640.46 343.36 640.55 343.61 640.66 343.94C642.74 349.95 653.65 381.49 653.65 381.49L666.98 342.96Z" fill="white"/>
<path d="M693.66 342.96L680.33 304.43L667 342.96C667 342.96 667.03 343.04 667.08 343.19C667.14 343.36 667.23 343.61 667.34 343.94C669.42 349.95 680.33 381.49 680.33 381.49L693.66 342.96Z" fill="white"/>
<path d="M720.34 342.96L707.01 304.43L693.68 342.96C693.68 342.96 693.71 343.04 693.76 343.19C693.82 343.36 693.91 343.61 694.02 343.94C696.1 349.95 707.01 381.49 707.01 381.49L720.34 342.96Z" fill="white"/>
<path d="M747.02 342.96L733.69 304.43L720.36 342.96C720.36 342.96 720.39 343.04 720.44 343.19C720.5 343.36 720.59 343.61 720.7 343.94C722.78 349.95 733.69 381.49 733.69 381.49L747.02 342.96Z" fill="white"/>
<path d="M773.7 342.96L760.37 304.43L747.04 342.96C747.04 342.96 747.07 343.04 747.12 343.19C747.18 343.36 747.27 343.61 747.38 343.94C749.46 349.95 760.37 381.49 760.37 381.49L773.7 342.96Z" fill="white"/>
<path d="M800.38 342.96L787.05 304.43L773.72 342.96C773.72 342.96 773.75 343.04 773.8 343.19C773.86 343.36 773.95 343.61 774.06 343.94C776.14 349.95 787.05 381.49 787.05 381.49L800.38 342.96Z" fill="white"/>
<path d="M827.06 342.96L813.73 304.43L800.4 342.96C800.4 342.96 800.43 343.04 800.48 343.19C800.54 343.36 800.63 343.61 800.74 343.94C802.82 349.95 813.73 381.49 813.73 381.49L827.06 342.96Z" fill="white"/>
<path d="M853.74 342.96L840.41 304.43L827.08 342.96C827.08 342.96 827.11 343.04 827.16 343.19C827.22 343.36 827.31 343.61 827.42 343.94C829.5 349.95 840.41 381.49 840.41 381.49L853.74 342.96Z" fill="white"/>
<path d="M880.42 342.96L867.09 304.43L853.76 342.96C853.76 342.96 853.79 343.04 853.84 343.19C853.9 343.36 853.99 343.61 854.1 343.94C856.18 349.95 867.09 381.49 867.09 381.49L880.42 342.96Z" fill="white"/>
<path d="M26.67 419.07L13.34 380.54L0 419.07C0 419.07 0.03 419.15 0.08 419.3C0.14 419.47 0.23 419.72 0.34 420.05C2.42 426.06 13.33 457.6 13.33 457.6L26.66 419.07H26.67Z" fill="white"/>
<path d="M53.3499 419.07L40.0199 380.54L26.6899 419.07C26.6899 419.07 26.7199 419.15 26.7699 419.3C26.8299 419.47 26.9199 419.72 27.0299 420.05C29.1099 426.06 40.0199 457.6 40.0199 457.6L53.3499 419.07Z" fill="white"/>
<path d="M80.0301 419.07L66.7001 380.54L53.3701 419.07C53.3701 419.07 53.4001 419.15 53.4501 419.3C53.5101 419.47 53.6001 419.72 53.7101 420.05C55.7901 426.06 66.7001 457.6 66.7001 457.6L80.0301 419.07Z" fill="white"/>
<path d="M106.71 419.07L93.38 380.54L80.05 419.07C80.05 419.07 80.08 419.15 80.13 419.3C80.19 419.47 80.28 419.72 80.39 420.05C82.47 426.06 93.38 457.6 93.38 457.6L106.71 419.07Z" fill="white"/>
<path d="M133.39 419.07L120.06 380.54L106.73 419.07C106.73 419.07 106.76 419.15 106.81 419.3C106.87 419.47 106.96 419.72 107.07 420.05C109.15 426.06 120.06 457.6 120.06 457.6L133.39 419.07Z" fill="white"/>
<path d="M160.07 419.07L146.74 380.54L133.41 419.07C133.41 419.07 133.44 419.15 133.49 419.3C133.55 419.47 133.64 419.72 133.75 420.05C135.83 426.06 146.74 457.6 146.74 457.6L160.07 419.07Z" fill="white"/>
<path d="M186.75 419.07L173.42 380.54L160.09 419.07C160.09 419.07 160.12 419.15 160.17 419.3C160.23 419.47 160.32 419.72 160.43 420.05C162.51 426.06 173.42 457.6 173.42 457.6L186.75 419.07Z" fill="white"/>
<path d="M213.43 419.07L200.1 380.54L186.77 419.07C186.77 419.07 186.8 419.15 186.85 419.3C186.91 419.47 187 419.72 187.11 420.05C189.19 426.06 200.1 457.6 200.1 457.6L213.43 419.07Z" fill="white"/>
<path d="M240.11 419.07L226.78 380.54L213.45 419.07C213.45 419.07 213.48 419.15 213.53 419.3C213.59 419.47 213.68 419.72 213.79 420.05C215.87 426.06 226.78 457.6 226.78 457.6L240.11 419.07Z" fill="white"/>
<path d="M266.79 419.07L253.46 380.54L240.13 419.07C240.13 419.07 240.16 419.15 240.21 419.3C240.27 419.47 240.36 419.72 240.47 420.05C242.55 426.06 253.46 457.6 253.46 457.6L266.79 419.07Z" fill="white"/>
<path d="M293.47 419.07L280.14 380.54L266.81 419.07C266.81 419.07 266.84 419.15 266.89 419.3C266.95 419.47 267.04 419.72 267.15 420.05C269.23 426.06 280.14 457.6 280.14 457.6L293.47 419.07Z" fill="white"/>
<path d="M320.14 419.07L306.81 380.54L293.48 419.07C293.48 419.07 293.51 419.15 293.56 419.3C293.62 419.47 293.71 419.72 293.82 420.05C295.9 426.06 306.81 457.6 306.81 457.6L320.14 419.07Z" fill="white"/>
<path d="M346.82 419.07L333.49 380.54L320.16 419.07C320.16 419.07 320.19 419.15 320.24 419.3C320.3 419.47 320.39 419.72 320.5 420.05C322.58 426.06 333.49 457.6 333.49 457.6L346.82 419.07Z" fill="white"/>
<path d="M373.5 419.07L360.17 380.54L346.84 419.07C346.84 419.07 346.87 419.15 346.92 419.3C346.98 419.47 347.07 419.72 347.18 420.05C349.26 426.06 360.17 457.6 360.17 457.6L373.5 419.07Z" fill="white"/>
<path d="M400.18 419.07L386.85 380.54L373.52 419.07C373.52 419.07 373.55 419.15 373.6 419.3C373.66 419.47 373.75 419.72 373.86 420.05C375.94 426.06 386.85 457.6 386.85 457.6L400.18 419.07Z" fill="white"/>
<path d="M426.86 419.07L413.53 380.54L400.2 419.07C400.2 419.07 400.23 419.15 400.28 419.3C400.34 419.47 400.43 419.72 400.54 420.05C402.62 426.06 413.53 457.6 413.53 457.6L426.86 419.07Z" fill="white"/>
<path d="M453.54 419.07L440.21 380.54L426.88 419.07C426.88 419.07 426.91 419.15 426.96 419.3C427.02 419.47 427.11 419.72 427.22 420.05C429.3 426.06 440.21 457.6 440.21 457.6L453.54 419.07Z" fill="white"/>
<path d="M480.22 419.07L466.89 380.54L453.56 419.07C453.56 419.07 453.59 419.15 453.64 419.3C453.7 419.47 453.79 419.72 453.9 420.05C455.98 426.06 466.89 457.6 466.89 457.6L480.22 419.07Z" fill="white"/>
<path d="M506.9 419.07L493.57 380.54L480.24 419.07C480.24 419.07 480.27 419.15 480.32 419.3C480.38 419.47 480.47 419.72 480.58 420.05C482.66 426.06 493.57 457.6 493.57 457.6L506.9 419.07Z" fill="white"/>
<path d="M533.58 419.07L520.25 380.54L506.92 419.07C506.92 419.07 506.95 419.15 507 419.3C507.06 419.47 507.15 419.72 507.26 420.05C509.34 426.06 520.25 457.6 520.25 457.6L533.58 419.07Z" fill="white"/>
<path d="M560.26 419.07L546.93 380.54L533.6 419.07C533.6 419.07 533.63 419.15 533.68 419.3C533.74 419.47 533.83 419.72 533.94 420.05C536.02 426.06 546.93 457.6 546.93 457.6L560.26 419.07Z" fill="white"/>
<path d="M586.94 419.07L573.61 380.54L560.28 419.07C560.28 419.07 560.31 419.15 560.36 419.3C560.42 419.47 560.51 419.72 560.62 420.05C562.7 426.06 573.61 457.6 573.61 457.6L586.94 419.07Z" fill="white"/>
<path d="M613.62 419.07L600.29 380.54L586.96 419.07C586.96 419.07 586.99 419.15 587.04 419.3C587.1 419.47 587.19 419.72 587.3 420.05C589.38 426.06 600.29 457.6 600.29 457.6L613.62 419.07Z" fill="white"/>
<path d="M640.3 419.07L626.97 380.54L613.64 419.07C613.64 419.07 613.67 419.15 613.72 419.3C613.78 419.47 613.87 419.72 613.98 420.05C616.06 426.06 626.97 457.6 626.97 457.6L640.3 419.07Z" fill="white"/>
<path d="M666.98 419.07L653.65 380.54L640.32 419.07C640.32 419.07 640.35 419.15 640.4 419.3C640.46 419.47 640.55 419.72 640.66 420.05C642.74 426.06 653.65 457.6 653.65 457.6L666.98 419.07Z" fill="white"/>
<path d="M693.66 419.07L680.33 380.54L667 419.07C667 419.07 667.03 419.15 667.08 419.3C667.14 419.47 667.23 419.72 667.34 420.05C669.42 426.06 680.33 457.6 680.33 457.6L693.66 419.07Z" fill="white"/>
<path d="M720.34 419.07L707.01 380.54L693.68 419.07C693.68 419.07 693.71 419.15 693.76 419.3C693.82 419.47 693.91 419.72 694.02 420.05C696.1 426.06 707.01 457.6 707.01 457.6L720.34 419.07Z" fill="white"/>
<path d="M747.02 419.07L733.69 380.54L720.36 419.07C720.36 419.07 720.39 419.15 720.44 419.3C720.5 419.47 720.59 419.72 720.7 420.05C722.78 426.06 733.69 457.6 733.69 457.6L747.02 419.07Z" fill="white"/>
<path d="M773.7 419.07L760.37 380.54L747.04 419.07C747.04 419.07 747.07 419.15 747.12 419.3C747.18 419.47 747.27 419.72 747.38 420.05C749.46 426.06 760.37 457.6 760.37 457.6L773.7 419.07Z" fill="white"/>
<path d="M800.38 419.07L787.05 380.54L773.72 419.07C773.72 419.07 773.75 419.15 773.8 419.3C773.86 419.47 773.95 419.72 774.06 420.05C776.14 426.06 787.05 457.6 787.05 457.6L800.38 419.07Z" fill="white"/>
<path d="M827.06 419.07L813.73 380.54L800.4 419.07C800.4 419.07 800.43 419.15 800.48 419.3C800.54 419.47 800.63 419.72 800.74 420.05C802.82 426.06 813.73 457.6 813.73 457.6L827.06 419.07Z" fill="white"/>
<path d="M853.74 419.07L840.41 380.54L827.08 419.07C827.08 419.07 827.11 419.15 827.16 419.3C827.22 419.47 827.31 419.72 827.42 420.05C829.5 426.06 840.41 457.6 840.41 457.6L853.74 419.07Z" fill="white"/>
<path d="M880.42 419.07L867.09 380.54L853.76 419.07C853.76 419.07 853.79 419.15 853.84 419.3C853.9 419.47 853.99 419.72 854.1 420.05C856.18 426.06 867.09 457.6 867.09 457.6L880.42 419.07Z" fill="white"/>
<path d="M26.67 495.18L13.34 456.65L0 495.18C0 495.18 0.03 495.26 0.08 495.41C0.14 495.58 0.23 495.83 0.34 496.16C2.42 502.17 13.33 533.71 13.33 533.71L26.66 495.18H26.67Z" fill="white"/>
<path d="M53.3499 495.18L40.0199 456.65L26.6899 495.18C26.6899 495.18 26.7199 495.26 26.7699 495.41C26.8299 495.58 26.9199 495.83 27.0299 496.16C29.1099 502.17 40.0199 533.71 40.0199 533.71L53.3499 495.18Z" fill="white"/>
<path d="M80.0301 495.18L66.7001 456.65L53.3701 495.18C53.3701 495.18 53.4001 495.26 53.4501 495.41C53.5101 495.58 53.6001 495.83 53.7101 496.16C55.7901 502.17 66.7001 533.71 66.7001 533.71L80.0301 495.18Z" fill="white"/>
<path d="M106.71 495.18L93.38 456.65L80.05 495.18C80.05 495.18 80.08 495.26 80.13 495.41C80.19 495.58 80.28 495.83 80.39 496.16C82.47 502.17 93.38 533.71 93.38 533.71L106.71 495.18Z" fill="white"/>
<path d="M133.39 495.18L120.06 456.65L106.73 495.18C106.73 495.18 106.76 495.26 106.81 495.41C106.87 495.58 106.96 495.83 107.07 496.16C109.15 502.17 120.06 533.71 120.06 533.71L133.39 495.18Z" fill="white"/>
<path d="M160.07 495.18L146.74 456.65L133.41 495.18C133.41 495.18 133.44 495.26 133.49 495.41C133.55 495.58 133.64 495.83 133.75 496.16C135.83 502.17 146.74 533.71 146.74 533.71L160.07 495.18Z" fill="white"/>
<path d="M186.75 495.18L173.42 456.65L160.09 495.18C160.09 495.18 160.12 495.26 160.17 495.41C160.23 495.58 160.32 495.83 160.43 496.16C162.51 502.17 173.42 533.71 173.42 533.71L186.75 495.18Z" fill="white"/>
<path d="M213.43 495.18L200.1 456.65L186.77 495.18C186.77 495.18 186.8 495.26 186.85 495.41C186.91 495.58 187 495.83 187.11 496.16C189.19 502.17 200.1 533.71 200.1 533.71L213.43 495.18Z" fill="white"/>
<path d="M240.11 495.18L226.78 456.65L213.45 495.18C213.45 495.18 213.48 495.26 213.53 495.41C213.59 495.58 213.68 495.83 213.79 496.16C215.87 502.17 226.78 533.71 226.78 533.71L240.11 495.18Z" fill="white"/>
<path d="M266.79 495.18L253.46 456.65L240.13 495.18C240.13 495.18 240.16 495.26 240.21 495.41C240.27 495.58 240.36 495.83 240.47 496.16C242.55 502.17 253.46 533.71 253.46 533.71L266.79 495.18Z" fill="white"/>
<path d="M293.47 495.18L280.14 456.65L266.81 495.18C266.81 495.18 266.84 495.26 266.89 495.41C266.95 495.58 267.04 495.83 267.15 496.16C269.23 502.17 280.14 533.71 280.14 533.71L293.47 495.18Z" fill="white"/>
<path d="M320.14 495.18L306.81 456.65L293.48 495.18C293.48 495.18 293.51 495.26 293.56 495.41C293.62 495.58 293.71 495.83 293.82 496.16C295.9 502.17 306.81 533.71 306.81 533.71L320.14 495.18Z" fill="white"/>
<path d="M346.82 495.18L333.49 456.65L320.16 495.18C320.16 495.18 320.19 495.26 320.24 495.41C320.3 495.58 320.39 495.83 320.5 496.16C322.58 502.17 333.49 533.71 333.49 533.71L346.82 495.18Z" fill="white"/>
<path d="M373.5 495.18L360.17 456.65L346.84 495.18C346.84 495.18 346.87 495.26 346.92 495.41C346.98 495.58 347.07 495.83 347.18 496.16C349.26 502.17 360.17 533.71 360.17 533.71L373.5 495.18Z" fill="white"/>
<path d="M400.18 495.18L386.85 456.65L373.52 495.18C373.52 495.18 373.55 495.26 373.6 495.41C373.66 495.58 373.75 495.83 373.86 496.16C375.94 502.17 386.85 533.71 386.85 533.71L400.18 495.18Z" fill="white"/>
<path d="M426.86 495.18L413.53 456.65L400.2 495.18C400.2 495.18 400.23 495.26 400.28 495.41C400.34 495.58 400.43 495.83 400.54 496.16C402.62 502.17 413.53 533.71 413.53 533.71L426.86 495.18Z" fill="white"/>
<path d="M453.54 495.18L440.21 456.65L426.88 495.18C426.88 495.18 426.91 495.26 426.96 495.41C427.02 495.58 427.11 495.83 427.22 496.16C429.3 502.17 440.21 533.71 440.21 533.71L453.54 495.18Z" fill="white"/>
<path d="M480.22 495.18L466.89 456.65L453.56 495.18C453.56 495.18 453.59 495.26 453.64 495.41C453.7 495.58 453.79 495.83 453.9 496.16C455.98 502.17 466.89 533.71 466.89 533.71L480.22 495.18Z" fill="white"/>
<path d="M506.9 495.18L493.57 456.65L480.24 495.18C480.24 495.18 480.27 495.26 480.32 495.41C480.38 495.58 480.47 495.83 480.58 496.16C482.66 502.17 493.57 533.71 493.57 533.71L506.9 495.18Z" fill="white"/>
<path d="M533.58 495.18L520.25 456.65L506.92 495.18C506.92 495.18 506.95 495.26 507 495.41C507.06 495.58 507.15 495.83 507.26 496.16C509.34 502.17 520.25 533.71 520.25 533.71L533.58 495.18Z" fill="white"/>
<path d="M560.26 495.18L546.93 456.65L533.6 495.18C533.6 495.18 533.63 495.26 533.68 495.41C533.74 495.58 533.83 495.83 533.94 496.16C536.02 502.17 546.93 533.71 546.93 533.71L560.26 495.18Z" fill="white"/>
<path d="M586.94 495.18L573.61 456.65L560.28 495.18C560.28 495.18 560.31 495.26 560.36 495.41C560.42 495.58 560.51 495.83 560.62 496.16C562.7 502.17 573.61 533.71 573.61 533.71L586.94 495.18Z" fill="white"/>
<path d="M613.62 495.18L600.29 456.65L586.96 495.18C586.96 495.18 586.99 495.26 587.04 495.41C587.1 495.58 587.19 495.83 587.3 496.16C589.38 502.17 600.29 533.71 600.29 533.71L613.62 495.18Z" fill="white"/>
<path d="M640.3 495.18L626.97 456.65L613.64 495.18C613.64 495.18 613.67 495.26 613.72 495.41C613.78 495.58 613.87 495.83 613.98 496.16C616.06 502.17 626.97 533.71 626.97 533.71L640.3 495.18Z" fill="white"/>
<path d="M666.98 495.18L653.65 456.65L640.32 495.18C640.32 495.18 640.35 495.26 640.4 495.41C640.46 495.58 640.55 495.83 640.66 496.16C642.74 502.17 653.65 533.71 653.65 533.71L666.98 495.18Z" fill="white"/>
<path d="M693.66 495.18L680.33 456.65L667 495.18C667 495.18 667.03 495.26 667.08 495.41C667.14 495.58 667.23 495.83 667.34 496.16C669.42 502.17 680.33 533.71 680.33 533.71L693.66 495.18Z" fill="white"/>
<path d="M720.34 495.18L707.01 456.65L693.68 495.18C693.68 495.18 693.71 495.26 693.76 495.41C693.82 495.58 693.91 495.83 694.02 496.16C696.1 502.17 707.01 533.71 707.01 533.71L720.34 495.18Z" fill="white"/>
<path d="M747.02 495.18L733.69 456.65L720.36 495.18C720.36 495.18 720.39 495.26 720.44 495.41C720.5 495.58 720.59 495.83 720.7 496.16C722.78 502.17 733.69 533.71 733.69 533.71L747.02 495.18Z" fill="white"/>
<path d="M773.7 495.18L760.37 456.65L747.04 495.18C747.04 495.18 747.07 495.26 747.12 495.41C747.18 495.58 747.27 495.83 747.38 496.16C749.46 502.17 760.37 533.71 760.37 533.71L773.7 495.18Z" fill="white"/>
<path d="M800.38 495.18L787.05 456.65L773.72 495.18C773.72 495.18 773.75 495.26 773.8 495.41C773.86 495.58 773.95 495.83 774.06 496.16C776.14 502.17 787.05 533.71 787.05 533.71L800.38 495.18Z" fill="white"/>
<path d="M827.06 495.18L813.73 456.65L800.4 495.18C800.4 495.18 800.43 495.26 800.48 495.41C800.54 495.58 800.63 495.83 800.74 496.16C802.82 502.17 813.73 533.71 813.73 533.71L827.06 495.18Z" fill="white"/>
<path d="M853.74 495.18L840.41 456.65L827.08 495.18C827.08 495.18 827.11 495.26 827.16 495.41C827.22 495.58 827.31 495.83 827.42 496.16C829.5 502.17 840.41 533.71 840.41 533.71L853.74 495.18Z" fill="white"/>
<path d="M880.42 495.18L867.09 456.65L853.76 495.18C853.76 495.18 853.79 495.26 853.84 495.41C853.9 495.58 853.99 495.83 854.1 496.16C856.18 502.17 867.09 533.71 867.09 533.71L880.42 495.18Z" fill="white"/>
<path d="M26.67 571.28L13.34 532.75L0.0100098 571.28C0.0100098 571.28 0.0400098 571.36 0.0900098 571.51C0.15001 571.68 0.24001 571.93 0.35001 572.26C2.43001 578.27 13.34 609.81 13.34 609.81L26.67 571.28Z" fill="white"/>
<path d="M53.3499 571.28L40.0199 532.75L26.6899 571.28C26.6899 571.28 26.7199 571.36 26.7699 571.51C26.8299 571.68 26.9199 571.93 27.0299 572.26C29.1099 578.27 40.0199 609.81 40.0199 609.81L53.3499 571.28Z" fill="white"/>
<path d="M80.0301 571.28L66.7001 532.75L53.3701 571.28C53.3701 571.28 53.4001 571.36 53.4501 571.51C53.5101 571.68 53.6001 571.93 53.7101 572.26C55.7901 578.27 66.7001 609.81 66.7001 609.81L80.0301 571.28Z" fill="white"/>
<path d="M106.71 571.28L93.38 532.75L80.05 571.28C80.05 571.28 80.08 571.36 80.13 571.51C80.19 571.68 80.28 571.93 80.39 572.26C82.47 578.27 93.38 609.81 93.38 609.81L106.71 571.28Z" fill="white"/>
<path d="M133.39 571.28L120.06 532.75L106.73 571.28C106.73 571.28 106.76 571.36 106.81 571.51C106.87 571.68 106.96 571.93 107.07 572.26C109.15 578.27 120.06 609.81 120.06 609.81L133.39 571.28Z" fill="white"/>
<path d="M160.07 571.28L146.74 532.75L133.41 571.28C133.41 571.28 133.44 571.36 133.49 571.51C133.55 571.68 133.64 571.93 133.75 572.26C135.83 578.27 146.74 609.81 146.74 609.81L160.07 571.28Z" fill="white"/>
<path d="M186.75 571.28L173.42 532.75L160.09 571.28C160.09 571.28 160.12 571.36 160.17 571.51C160.23 571.68 160.32 571.93 160.43 572.26C162.51 578.27 173.42 609.81 173.42 609.81L186.75 571.28Z" fill="white"/>
<path d="M213.43 571.28L200.1 532.75L186.77 571.28C186.77 571.28 186.8 571.36 186.85 571.51C186.91 571.68 187 571.93 187.11 572.26C189.19 578.27 200.1 609.81 200.1 609.81L213.43 571.28Z" fill="white"/>
<path d="M240.11 571.28L226.78 532.75L213.45 571.28C213.45 571.28 213.48 571.36 213.53 571.51C213.59 571.68 213.68 571.93 213.79 572.26C215.87 578.27 226.78 609.81 226.78 609.81L240.11 571.28Z" fill="white"/>
<path d="M266.79 571.28L253.46 532.75L240.13 571.28C240.13 571.28 240.16 571.36 240.21 571.51C240.27 571.68 240.36 571.93 240.47 572.26C242.55 578.27 253.46 609.81 253.46 609.81L266.79 571.28Z" fill="white"/>
<path d="M293.47 571.28L280.14 532.75L266.81 571.28C266.81 571.28 266.84 571.36 266.89 571.51C266.95 571.68 267.04 571.93 267.15 572.26C269.23 578.27 280.14 609.81 280.14 609.81L293.47 571.28Z" fill="white"/>
<path d="M320.14 571.28L306.81 532.75L293.48 571.28C293.48 571.28 293.51 571.36 293.56 571.51C293.62 571.68 293.71 571.93 293.82 572.26C295.9 578.27 306.81 609.81 306.81 609.81L320.14 571.28Z" fill="white"/>
<path d="M346.82 571.28L333.49 532.75L320.16 571.28C320.16 571.28 320.19 571.36 320.24 571.51C320.3 571.68 320.39 571.93 320.5 572.26C322.58 578.27 333.49 609.81 333.49 609.81L346.82 571.28Z" fill="white"/>
<path d="M373.5 571.28L360.17 532.75L346.84 571.28C346.84 571.28 346.87 571.36 346.92 571.51C346.98 571.68 347.07 571.93 347.18 572.26C349.26 578.27 360.17 609.81 360.17 609.81L373.5 571.28Z" fill="white"/>
<path d="M400.18 571.28L386.85 532.75L373.52 571.28C373.52 571.28 373.55 571.36 373.6 571.51C373.66 571.68 373.75 571.93 373.86 572.26C375.94 578.27 386.85 609.81 386.85 609.81L400.18 571.28Z" fill="white"/>
<path d="M426.86 571.28L413.53 532.75L400.2 571.28C400.2 571.28 400.23 571.36 400.28 571.51C400.34 571.68 400.43 571.93 400.54 572.26C402.62 578.27 413.53 609.81 413.53 609.81L426.86 571.28Z" fill="white"/>
<path d="M453.54 571.28L440.21 532.75L426.88 571.28C426.88 571.28 426.91 571.36 426.96 571.51C427.02 571.68 427.11 571.93 427.22 572.26C429.3 578.27 440.21 609.81 440.21 609.81L453.54 571.28Z" fill="white"/>
<path d="M480.22 571.28L466.89 532.75L453.56 571.28C453.56 571.28 453.59 571.36 453.64 571.51C453.7 571.68 453.79 571.93 453.9 572.26C455.98 578.27 466.89 609.81 466.89 609.81L480.22 571.28Z" fill="white"/>
<path d="M506.9 571.28L493.57 532.75L480.24 571.28C480.24 571.28 480.27 571.36 480.32 571.51C480.38 571.68 480.47 571.93 480.58 572.26C482.66 578.27 493.57 609.81 493.57 609.81L506.9 571.28Z" fill="white"/>
<path d="M533.58 571.28L520.25 532.75L506.92 571.28C506.92 571.28 506.95 571.36 507 571.51C507.06 571.68 507.15 571.93 507.26 572.26C509.34 578.27 520.25 609.81 520.25 609.81L533.58 571.28Z" fill="white"/>
<path d="M560.26 571.28L546.93 532.75L533.6 571.28C533.6 571.28 533.63 571.36 533.68 571.51C533.74 571.68 533.83 571.93 533.94 572.26C536.02 578.27 546.93 609.81 546.93 609.81L560.26 571.28Z" fill="white"/>
<path d="M586.94 571.28L573.61 532.75L560.28 571.28C560.28 571.28 560.31 571.36 560.36 571.51C560.42 571.68 560.51 571.93 560.62 572.26C562.7 578.27 573.61 609.81 573.61 609.81L586.94 571.28Z" fill="white"/>
<path d="M613.62 571.28L600.29 532.75L586.96 571.28C586.96 571.28 586.99 571.36 587.04 571.51C587.1 571.68 587.19 571.93 587.3 572.26C589.38 578.27 600.29 609.81 600.29 609.81L613.62 571.28Z" fill="white"/>
<path d="M640.3 571.28L626.97 532.75L613.64 571.28C613.64 571.28 613.67 571.36 613.72 571.51C613.78 571.68 613.87 571.93 613.98 572.26C616.06 578.27 626.97 609.81 626.97 609.81L640.3 571.28Z" fill="white"/>
<path d="M666.98 571.28L653.65 532.75L640.32 571.28C640.32 571.28 640.35 571.36 640.4 571.51C640.46 571.68 640.55 571.93 640.66 572.26C642.74 578.27 653.65 609.81 653.65 609.81L666.98 571.28Z" fill="white"/>
<path d="M693.66 571.28L680.33 532.75L667 571.28C667 571.28 667.03 571.36 667.08 571.51C667.14 571.68 667.23 571.93 667.34 572.26C669.42 578.27 680.33 609.81 680.33 609.81L693.66 571.28Z" fill="white"/>
<path d="M720.34 571.28L707.01 532.75L693.68 571.28C693.68 571.28 693.71 571.36 693.76 571.51C693.82 571.68 693.91 571.93 694.02 572.26C696.1 578.27 707.01 609.81 707.01 609.81L720.34 571.28Z" fill="white"/>
<path d="M747.02 571.28L733.69 532.75L720.36 571.28C720.36 571.28 720.39 571.36 720.44 571.51C720.5 571.68 720.59 571.93 720.7 572.26C722.78 578.27 733.69 609.81 733.69 609.81L747.02 571.28Z" fill="white"/>
<path d="M773.7 571.28L760.37 532.75L747.04 571.28C747.04 571.28 747.07 571.36 747.12 571.51C747.18 571.68 747.27 571.93 747.38 572.26C749.46 578.27 760.37 609.81 760.37 609.81L773.7 571.28Z" fill="white"/>
<path d="M800.38 571.28L787.05 532.75L773.72 571.28C773.72 571.28 773.75 571.36 773.8 571.51C773.86 571.68 773.95 571.93 774.06 572.26C776.14 578.27 787.05 609.81 787.05 609.81L800.38 571.28Z" fill="white"/>
<path d="M827.06 571.28L813.73 532.75L800.4 571.28C800.4 571.28 800.43 571.36 800.48 571.51C800.54 571.68 800.63 571.93 800.74 572.26C802.82 578.27 813.73 609.81 813.73 609.81L827.06 571.28Z" fill="white"/>
<path d="M853.74 571.28L840.41 532.75L827.08 571.28C827.08 571.28 827.11 571.36 827.16 571.51C827.22 571.68 827.31 571.93 827.42 572.26C829.5 578.27 840.41 609.81 840.41 609.81L853.74 571.28Z" fill="white"/>
<path d="M880.42 571.28L867.09 532.75L853.76 571.28C853.76 571.28 853.79 571.36 853.84 571.51C853.9 571.68 853.99 571.93 854.1 572.26C856.18 578.27 867.09 609.81 867.09 609.81L880.42 571.28Z" fill="white"/>
</g>
<defs>
<clipPath id="clip0_55_558">
<rect width="880.42" height="609.82" fill="white"/>
</clipPath>
</defs>
</svg>
