<svg width="29" height="130" viewBox="0 0 29 130" fill="none" xmlns="http://www.w3.org/2000/svg">
<g clip-path="url(#clip0_55_43)" filter="url(#filter0_d_55_43)">
<path d="M25 42.4704V42.1388C19.2833 42.1388 14.6667 37.286 14.6667 31.316H14.35C14.3333 37.286 9.71667 42.1388 4 42.1388V42.4704C9.71667 42.4704 14.3333 47.3232 14.3333 53.2931H14.65C14.65 47.3057 19.2833 42.4704 24.9833 42.4704H25Z" fill="url(#paint0_linear_55_43)"/>
<path d="M24.9999 78.9535V78.6219C19.2833 78.6219 14.6666 73.7691 14.6666 67.7991H14.3499C14.3499 73.7865 9.7166 78.6219 4.0166 78.6219V78.9535C9.73327 78.9535 14.3499 83.8063 14.3499 89.7762H14.6666C14.6666 83.7888 19.2999 78.9535 24.9999 78.9535Z" fill="url(#paint1_linear_55_43)"/>
<path d="M14.5 26.2364V0" stroke="url(#paint2_linear_55_43)" stroke-width="0.25" stroke-miterlimit="10"/>
<path d="M14.5 122V95.7636" stroke="url(#paint3_linear_55_43)" stroke-width="0.25" stroke-miterlimit="10"/>
</g>
<defs>
<filter id="filter0_d_55_43" x="0" y="0" width="29" height="130" filterUnits="userSpaceOnUse" color-interpolation-filters="sRGB">
<feFlood flood-opacity="0" result="BackgroundImageFix"/>
<feColorMatrix in="SourceAlpha" type="matrix" values="0 0 0 0 0 0 0 0 0 0 0 0 0 0 0 0 0 0 127 0" result="hardAlpha"/>
<feOffset dy="4"/>
<feGaussianBlur stdDeviation="2"/>
<feComposite in2="hardAlpha" operator="out"/>
<feColorMatrix type="matrix" values="0 0 0 0 0 0 0 0 0 0 0 0 0 0 0 0 0 0 0.25 0"/>
<feBlend mode="normal" in2="BackgroundImageFix" result="effect1_dropShadow_55_43"/>
<feBlend mode="normal" in="SourceGraphic" in2="effect1_dropShadow_55_43" result="shape"/>
</filter>
<linearGradient id="paint0_linear_55_43" x1="14.0667" y1="50.1685" x2="15.0902" y2="33.2067" gradientUnits="userSpaceOnUse">
<stop stop-color="#B08A4B"/>
<stop offset="1" stop-color="#E1C897"/>
</linearGradient>
<linearGradient id="paint1_linear_55_43" x1="14.0666" y1="86.6516" x2="15.0901" y2="69.6898" gradientUnits="userSpaceOnUse">
<stop stop-color="#B08A4B"/>
<stop offset="1" stop-color="#E1C897"/>
</linearGradient>
<linearGradient id="paint2_linear_55_43" x1="-nan" y1="-nan" x2="-nan" y2="-nan" gradientUnits="userSpaceOnUse">
<stop stop-color="#B08A4B"/>
<stop offset="1" stop-color="#E1C897"/>
</linearGradient>
<linearGradient id="paint3_linear_55_43" x1="-nan" y1="-nan" x2="-nan" y2="-nan" gradientUnits="userSpaceOnUse">
<stop stop-color="#B08A4B"/>
<stop offset="1" stop-color="#E1C897"/>
</linearGradient>
<clipPath id="clip0_55_43">
<rect width="21" height="122" fill="white" transform="translate(4)"/>
</clipPath>
</defs>
</svg>
