<svg width="1518" height="96" viewBox="0 0 1518 96" fill="none" xmlns="http://www.w3.org/2000/svg">
<g clip-path="url(#clip0_55_71)">
<path d="M650.666 51.7221L0 49.0496V54.3946L650.666 51.7221Z" fill="url(#paint0_linear_55_71)"/>
<path d="M798.376 42.8501L789.469 51.7571L798.376 60.6641L807.283 51.7571L798.376 42.8501Z" fill="url(#paint1_linear_55_71)"/>
<path d="M823.61 45.5163L817.374 51.7524L823.61 57.9886L829.846 51.7525L823.61 45.5163Z" fill="url(#paint2_linear_55_71)"/>
<path d="M845.123 47.6424L841.029 51.7368L845.123 55.8313L849.218 51.7368L845.123 47.6424Z" fill="url(#paint3_linear_55_71)"/>
<path d="M714.315 42.8345L705.408 51.7415L714.315 60.6485L723.222 51.7415L714.315 42.8345Z" fill="url(#paint4_linear_55_71)"/>
<path d="M689.1 45.5102L682.864 51.7463L689.1 57.9825L695.336 51.7464L689.1 45.5102Z" fill="url(#paint5_linear_55_71)"/>
<path d="M667.561 47.6429L663.467 51.7373L667.561 55.8318L671.656 51.7373L667.561 47.6429Z" fill="url(#paint6_linear_55_71)"/>
<path d="M860.6 51.7221L1518 54.4124V49.0674L860.6 51.7221Z" fill="url(#paint7_linear_55_71)"/>
<path d="M759.615 76.0597H757.69V74.2959H759.632V72.0688H757.69V68.7192H753.592V72.0688H751.65V74.2959H753.592V76.0597H751.668V77.0575L740.96 85.1462V92.2195H752.114L755.659 95.0167L759.205 92.2195H770.358V85.1462L759.65 77.0575V76.0597H759.615ZM755.641 92.5402L753.218 90.6338L755.641 88.1038L758.064 90.6338L755.641 92.5402ZM767.311 86.6428V89.1906H759.223L755.641 85.4313L752.06 89.1906H743.971V86.6428L751.953 80.603L755.641 81.6363L759.329 80.603L767.311 86.6428Z" fill="url(#paint8_linear_55_71)"/>
<path d="M776.772 56.4611C774.634 54.4122 772.46 52.3989 770.394 50.2965C769.236 49.1206 767.988 48.6039 766.278 48.6217C763.677 48.6574 761.076 48.6574 758.474 48.6574V43.0986C762.394 43.0986 766.314 43.0629 770.233 43.0273C770.857 43.0273 771.57 42.671 772.104 42.279C772.941 41.6732 773.636 40.8715 774.42 40.1944C775.382 39.3392 776.38 38.5375 777.378 37.7001C777.289 37.5041 777.2 37.3081 777.111 37.1122C776.647 37.0053 776.184 36.8271 775.721 36.8271C773.565 36.7915 771.391 36.7915 769.236 36.7915C765.654 36.7915 762.055 36.7915 758.474 36.7915V34.5822C758.474 33.6913 758.474 32.8005 758.474 31.9275C759.49 31.4999 760.505 31.0723 761.503 30.6447C763.035 30.8407 764.585 31.0367 766.118 31.2326C766.563 31.2683 767.008 31.3217 767.454 31.3574C767.65 31.0723 767.864 30.7694 767.917 30.6625C768.559 26.0124 769.093 22.0749 769.628 18.1196C769.717 17.6385 769.824 17.1575 769.913 16.6942C770.233 15.2511 770.34 13.8079 770.34 12.347C770.34 10.013 770.055 7.69679 769.859 5.38062C769.521 5.23809 769.164 5.09556 768.826 4.95302C767.703 8.03531 766.599 11.1176 765.476 14.1999C764.995 14.9482 764.514 15.6787 763.98 16.4982C764.104 17.0506 764.265 17.6741 764.407 18.3155C764.514 18.6006 764.603 18.8679 764.621 18.9035H766.474C766.082 20.0972 765.672 21.2909 765.28 22.5025C764.853 23.714 764.443 24.9255 763.997 26.1549C763.997 26.1549 763.997 26.1549 763.98 26.1549C763.98 26.1549 763.98 26.1549 763.962 26.1549C761.699 25.7273 759.044 27.598 757.726 24.391C757.673 19.0104 756.122 13.4694 759.329 8.42728C759.027 7.64334 758.742 6.85941 758.439 6.07548L761.093 5.11337L761.521 6.27146L760.042 6.80596L760.666 8.51636L764.015 7.30483L762.554 3.27825L757.886 1.28279L758.421 2.74375L757.334 3.13572C756.996 2.22707 756.639 1.31842 756.301 0.409767C756.069 0.249417 755.855 0.106883 755.606 -0.0534668C755.374 0.213784 755.214 0.409767 755.053 0.587934C754.733 1.4075 754.394 2.24489 754.074 3.06445L753.165 2.72594L753.699 1.26497L749.031 3.26044L747.57 7.28701L750.92 8.49855L751.544 6.78814L750.065 6.25364L750.492 5.09556L752.933 5.98639C752.648 6.71688 752.363 7.44736 752.078 8.16003C752.381 8.73016 752.63 9.21121 752.88 9.69226C753.183 10.5475 753.468 11.3849 753.771 12.2401C753.931 18.0127 756.069 28.2038 746.947 25.4957C746.377 23.2686 745.7 20.6852 745.041 18.1017C745.201 18.2086 745.343 18.3155 745.504 18.4224C745.789 18.6541 746.092 18.8857 746.787 19.4202C746.893 17.977 746.983 16.908 747.072 15.8568C744.934 12.7567 743.49 9.37156 742.885 5.61224C742.511 5.39844 742.119 5.20246 741.744 4.98866C741.584 5.64787 741.442 6.32491 741.281 6.98413C740.194 14.8591 742.742 22.449 743.134 30.2171C743.134 30.5912 743.633 30.9298 743.9 31.2861C744.167 31.2861 744.417 31.2861 744.684 31.2861C745.432 31.001 746.163 30.6981 746.911 30.4131C749.121 30.4665 751.348 30.52 753.147 32.1235C753.147 32.5511 753.183 32.9787 753.201 33.4063C753.201 33.7626 753.201 34.1368 753.183 34.4931C753.094 38.9651 753.005 43.4549 752.898 47.9269V48.5148C750.599 48.5148 748.319 48.497 746.02 48.4792C744.916 48.4792 742.992 47.2142 742.635 46.1987C742.528 45.9136 742.511 45.4147 742.689 45.2188C743.686 44.0785 744.524 42.9026 746.43 42.9204C747.642 42.9204 748.853 42.956 750.065 42.956V36.6846C747.57 36.6846 745.076 36.6846 742.582 36.7202C741.905 36.7202 741.05 37.0587 740.569 37.5219C738.181 39.749 735.865 42.0652 733.549 44.3814C732.337 45.5929 732.355 45.9136 733.531 47.0895C735.722 49.2631 737.932 51.4011 740.141 53.5748C741.05 54.4656 742.083 54.8041 743.384 54.8041C750.19 54.7507 756.996 54.8041 763.802 54.7685C765.494 54.7685 766.474 55.8019 767.4 56.9065C767.65 57.1916 767.596 58.0289 767.347 58.3496C766.403 59.5434 765.316 60.452 763.534 60.4342C761.859 60.4342 760.185 60.4164 758.51 60.3986C758.456 59.4543 758.385 58.5634 758.332 57.6548H753.45C753.361 58.5634 753.29 59.4899 753.201 60.3986C748.925 60.3986 744.631 60.3986 740.355 60.3986C739.143 60.3986 738.217 60.8083 737.415 61.6457C736.275 62.8216 735.081 63.9263 733.941 65.1022C733.602 65.4407 733.406 65.9039 733.014 66.4919C733.745 66.581 734.261 66.7057 734.778 66.7057C745.557 66.7057 756.336 66.7057 767.115 66.7413C768.256 66.7413 769.147 66.4028 769.93 65.6189C772.229 63.3383 774.545 61.0756 776.861 58.7951C777.698 57.9577 777.698 57.1737 776.861 56.3542L776.772 56.4611ZM754.127 8.08876L755.677 4.06219L757.227 8.08876C757.227 8.08876 757.263 8.26693 757.227 8.37383L755.677 12.4004L754.127 8.37383C754.091 8.28475 754.091 8.17785 754.127 8.08876Z" fill="url(#paint9_linear_55_71)"/>
</g>
<defs>
<linearGradient id="paint0_linear_55_71" x1="648.902" y1="57.0136" x2="41.2634" y2="49.6019" gradientUnits="userSpaceOnUse">
<stop stop-color="#EAD594"/>
<stop offset="0.48" stop-color="#F1E1C7"/>
<stop offset="1" stop-color="#C89043"/>
</linearGradient>
<linearGradient id="paint1_linear_55_71" x1="797.383" y1="0.995731" x2="799.271" y2="97.0634" gradientUnits="userSpaceOnUse">
<stop stop-color="#EAD594"/>
<stop offset="0.48" stop-color="#F1E1C7"/>
<stop offset="1" stop-color="#C89043"/>
</linearGradient>
<linearGradient id="paint2_linear_55_71" x1="822.908" y1="15.886" x2="824.226" y2="83.126" gradientUnits="userSpaceOnUse">
<stop stop-color="#EAD594"/>
<stop offset="0.48" stop-color="#F1E1C7"/>
<stop offset="1" stop-color="#C89043"/>
</linearGradient>
<linearGradient id="paint3_linear_55_71" x1="844.658" y1="27.9322" x2="845.531" y2="72.1354" gradientUnits="userSpaceOnUse">
<stop stop-color="#EAD594"/>
<stop offset="0.48" stop-color="#F1E1C7"/>
<stop offset="1" stop-color="#C89043"/>
</linearGradient>
<linearGradient id="paint4_linear_55_71" x1="715.294" y1="102.485" x2="713.406" y2="6.43524" gradientUnits="userSpaceOnUse">
<stop stop-color="#EAD594"/>
<stop offset="0.48" stop-color="#F1E1C7"/>
<stop offset="1" stop-color="#C89043"/>
</linearGradient>
<linearGradient id="paint5_linear_55_71" x1="689.8" y1="87.6003" x2="688.482" y2="20.3602" gradientUnits="userSpaceOnUse">
<stop stop-color="#EAD594"/>
<stop offset="0.48" stop-color="#F1E1C7"/>
<stop offset="1" stop-color="#C89043"/>
</linearGradient>
<linearGradient id="paint6_linear_55_71" x1="668.05" y1="75.5367" x2="667.177" y2="31.3514" gradientUnits="userSpaceOnUse">
<stop stop-color="#EAD594"/>
<stop offset="0.48" stop-color="#F1E1C7"/>
<stop offset="1" stop-color="#C89043"/>
</linearGradient>
<linearGradient id="paint7_linear_55_71" x1="862.381" y1="46.4127" x2="1476.33" y2="53.8957" gradientUnits="userSpaceOnUse">
<stop stop-color="#EAD594"/>
<stop offset="0.48" stop-color="#F1E1C7"/>
<stop offset="1" stop-color="#C89043"/>
</linearGradient>
<linearGradient id="paint8_linear_55_71" x1="753.967" y1="2.8331" x2="755.784" y2="95.6224" gradientUnits="userSpaceOnUse">
<stop stop-color="#C89D60"/>
<stop offset="0.52" stop-color="#F1E1C7"/>
<stop offset="1" stop-color="#EAD594"/>
</linearGradient>
<linearGradient id="paint9_linear_55_71" x1="754.198" y1="2.81502" x2="756.016" y2="95.6222" gradientUnits="userSpaceOnUse">
<stop stop-color="#C89D60"/>
<stop offset="0.52" stop-color="#F1E1C7"/>
<stop offset="1" stop-color="#EAD594"/>
</linearGradient>
<clipPath id="clip0_55_71">
<rect width="1518" height="95.0164" fill="white"/>
</clipPath>
</defs>
</svg>
