<svg width="1518" height="50" viewBox="0 0 1518 50" fill="none" xmlns="http://www.w3.org/2000/svg">
<g clip-path="url(#clip0_55_59)">
<path d="M708.641 25.5849V23.8032L0 23.8032V25.5849L708.641 25.5849Z" fill="url(#paint0_linear_55_59)"/>
<path d="M731.375 24.6939L745.629 0H774.135L788.389 24.6939L774.135 49.3879H745.629L731.375 24.6939ZM745.967 0.587951L732.052 24.6939L745.967 48.7999H773.797L787.712 24.6939L773.797 0.587951H745.967Z" fill="#A5885B"/>
<path d="M792.807 9.60311L792.593 9.24678L789.814 4.41846H779.195L779.462 4.89951H789.529L792.041 9.24678L792.237 9.60311L800.949 24.676L792.255 39.749L792.041 40.1231L789.529 44.4704H779.462L779.195 44.9514H789.814L792.593 40.1231L792.807 39.749L801.519 24.676L792.807 9.60311Z" fill="#A5885B"/>
<path d="M800.932 9.24682H783.097L782.545 10.2089L782.758 10.5653L783.311 9.60315H800.718L809.43 24.6761L800.718 39.749H783.311L782.758 38.7869L782.545 39.161L783.097 40.1231H800.932L809.84 24.6761L800.932 9.229V9.24682Z" fill="#A5885B"/>
<path d="M728.952 44.4882L726.44 40.1409L726.226 39.7668L717.514 24.6939L726.226 9.62094L726.44 9.2646L728.952 4.91733H740.302L740.569 4.43628H728.667L725.888 9.2646L725.674 9.62094L716.979 24.6939L725.674 39.7668L725.888 40.1409L728.667 44.9693H740.569L740.302 44.4882H728.952Z" fill="#A5885B"/>
<path d="M736.382 37.6823L735.188 39.7668H717.781L709.069 24.6939L717.781 9.62098H735.188L736.4 11.7055L736.596 11.3314L735.402 9.24683H717.567L708.641 24.6939L717.567 40.141H735.402L736.613 38.0564L736.4 37.7001L736.382 37.6823Z" fill="#A5885B"/>
<path d="M748.23 44.8626H771.534L783.168 24.6941L771.534 4.52563H748.23L736.595 24.6941L748.23 44.8626Z" fill="url(#paint1_linear_55_59)"/>
<path d="M710.538 21.3361L707.187 24.6873L710.538 28.0384L713.889 24.6873L710.538 21.3361Z" fill="url(#paint2_linear_55_59)"/>
<path d="M809.359 23.8206V25.6023L1518.02 25.6023V23.8206L809.359 23.8206Z" fill="url(#paint3_linear_55_59)"/>
<path d="M807.449 21.3547L804.098 24.7058L807.449 28.057L810.8 24.7058L807.449 21.3547Z" fill="url(#paint4_linear_55_59)"/>
<path d="M756.123 32.2839H757.958V33.9587H756.105V36.0611H757.958V44.8625H761.842V36.0611H763.695V33.9587H761.842V32.2839H763.677V31.3397L773.815 23.6785V16.9794H763.267L759.918 14.3425L756.568 16.9794H746.021V23.6785L756.158 31.3397V32.2839H756.123ZM759.882 16.6765L762.162 18.476L759.882 20.8813L757.601 18.476L759.882 16.6765ZM748.836 22.271V19.8657H756.479L759.864 23.4112L763.249 19.8657H770.91V22.271L763.356 27.9723L759.864 26.9924L756.372 27.9723L748.818 22.271H748.836Z" fill="#09193A"/>
</g>
<defs>
<linearGradient id="paint0_linear_55_59" x1="706.753" y1="28.9879" x2="44.9872" y2="20.9169" gradientUnits="userSpaceOnUse">
<stop stop-color="#866C44"/>
<stop offset="1" stop-color="#C8A775"/>
</linearGradient>
<linearGradient id="paint1_linear_55_59" x1="759.757" y1="45.9494" x2="759.971" y2="8.87291" gradientUnits="userSpaceOnUse">
<stop stop-color="#866C44"/>
<stop offset="1" stop-color="#C8A775"/>
</linearGradient>
<linearGradient id="paint2_linear_55_59" x1="707.216" y1="24.6356" x2="713.452" y2="24.7247" gradientUnits="userSpaceOnUse">
<stop stop-color="#866C44"/>
<stop offset="1" stop-color="#C8A775"/>
</linearGradient>
<linearGradient id="paint3_linear_55_59" x1="811.247" y1="20.4176" x2="1473.03" y2="28.4886" gradientUnits="userSpaceOnUse">
<stop stop-color="#866C44"/>
<stop offset="1" stop-color="#C8A775"/>
</linearGradient>
<linearGradient id="paint4_linear_55_59" x1="810.77" y1="24.7396" x2="804.534" y2="24.6684" gradientUnits="userSpaceOnUse">
<stop stop-color="#866C44"/>
<stop offset="1" stop-color="#C8A775"/>
</linearGradient>
<clipPath id="clip0_55_59">
<rect width="1518" height="49.3879" fill="white"/>
</clipPath>
</defs>
</svg>
